<svg width="115" height="25" viewBox="0 0 115 25" fill="none" xmlns="http://www.w3.org/2000/svg">
<rect width="25" height="25" rx="8" fill="white"/>
<circle cx="10" cy="15" r="5" stroke="black" stroke-width="2"/>
<rect x="4" y="5" width="16" height="2" fill="black"/>
<rect x="18" y="21" width="16" height="2" transform="rotate(-90 18 21)" fill="black"/>
<path d="M33.3026 19.5H30.4901L35.6108 4.95455H38.8636L43.9915 19.5H41.179L37.294 7.9375H37.1804L33.3026 19.5ZM33.3949 13.7969H41.0653V15.9134H33.3949V13.7969ZM45.9073 19.5V4.95455H48.4783V10.3949H48.5849C48.7174 10.1297 48.9045 9.84801 49.146 9.54972C49.3874 9.24669 49.7141 8.98864 50.1261 8.77557C50.538 8.55777 51.0636 8.44886 51.7028 8.44886C52.5456 8.44886 53.3055 8.6643 53.9826 9.09517C54.6644 9.52131 55.2042 10.1534 55.6019 10.9915C56.0044 11.8248 56.2056 12.8475 56.2056 14.0597C56.2056 15.2576 56.0091 16.2756 55.6161 17.1136C55.2231 17.9517 54.6881 18.5909 54.011 19.0312C53.3339 19.4716 52.5669 19.6918 51.7099 19.6918C51.0849 19.6918 50.5664 19.5876 50.1545 19.3793C49.7425 19.1709 49.4111 18.92 49.1602 18.6264C48.9139 18.3281 48.7222 18.0464 48.5849 17.7812H48.4357V19.5H45.9073ZM48.4286 14.0455C48.4286 14.7509 48.5281 15.3688 48.7269 15.8991C48.9305 16.4295 49.2217 16.8437 49.6005 17.142C49.984 17.4356 50.448 17.5824 50.9925 17.5824C51.5607 17.5824 52.0366 17.4309 52.4201 17.1278C52.8036 16.8201 53.0924 16.401 53.2866 15.8707C53.4854 15.3357 53.5849 14.7273 53.5849 14.0455C53.5849 13.3684 53.4878 12.767 53.2937 12.2415C53.0996 11.7159 52.8107 11.304 52.4272 11.0057C52.0437 10.7074 51.5655 10.5582 50.9925 10.5582C50.4433 10.5582 49.9769 10.7027 49.5934 10.9915C49.2099 11.2803 48.9187 11.6851 48.7198 12.206C48.5257 12.7268 48.4286 13.34 48.4286 14.0455ZM67.0135 11.4744L64.6697 11.7301C64.6035 11.4934 64.4875 11.2708 64.3217 11.0625C64.1607 10.8542 63.9429 10.6861 63.6683 10.5582C63.3937 10.4304 63.0575 10.3665 62.6598 10.3665C62.1248 10.3665 61.675 10.4825 61.3104 10.7145C60.9505 10.9465 60.773 11.2472 60.7777 11.6165C60.773 11.9337 60.889 12.1918 61.1257 12.3906C61.3672 12.5895 61.7649 12.7528 62.3189 12.8807L64.1797 13.2784C65.2119 13.5009 65.9789 13.8537 66.4808 14.3366C66.9875 14.8196 67.2431 15.4517 67.2479 16.233C67.2431 16.9195 67.0419 17.5256 66.6442 18.0511C66.2512 18.572 65.7043 18.9792 65.0036 19.2727C64.3028 19.5663 63.4979 19.7131 62.5888 19.7131C61.2536 19.7131 60.1787 19.4337 59.3643 18.875C58.55 18.3116 58.0646 17.5279 57.9084 16.5241L60.4155 16.2827C60.5291 16.7751 60.7706 17.1468 61.1399 17.3977C61.5092 17.6487 61.9898 17.7741 62.5817 17.7741C63.1925 17.7741 63.6825 17.6487 64.0518 17.3977C64.4259 17.1468 64.6129 16.8366 64.6129 16.4673C64.6129 16.1548 64.4922 15.8968 64.2507 15.6932C64.014 15.4896 63.6446 15.3333 63.1428 15.2244L61.282 14.8338C60.2356 14.616 59.4614 14.2491 58.9595 13.733C58.4576 13.2121 58.209 12.554 58.2138 11.7585C58.209 11.0862 58.3913 10.5038 58.7607 10.0114C59.1347 9.5142 59.6532 9.13068 60.3161 8.8608C60.9837 8.58617 61.7531 8.44886 62.6243 8.44886C63.9027 8.44886 64.9089 8.72112 65.6428 9.26562C66.3814 9.81013 66.8383 10.5464 67.0135 11.4744ZM74.8153 8.59091V10.5795H68.544V8.59091H74.8153ZM70.0923 5.97727H72.6634V16.2188C72.6634 16.5644 72.7154 16.8295 72.8196 17.0142C72.9285 17.1941 73.0705 17.3172 73.2457 17.3835C73.4209 17.4498 73.6151 17.483 73.8281 17.483C73.9891 17.483 74.1359 17.4711 74.2685 17.4474C74.4058 17.4238 74.5099 17.4025 74.581 17.3835L75.0142 19.3935C74.8769 19.4408 74.6804 19.4929 74.4247 19.5497C74.1738 19.6065 73.866 19.6397 73.5014 19.6491C72.8575 19.6681 72.2775 19.571 71.7614 19.358C71.2453 19.1402 70.8357 18.804 70.5327 18.3494C70.2344 17.8949 70.0876 17.3267 70.0923 16.6449V5.97727ZM76.9656 19.5V8.59091H79.4585V10.4091H79.5721C79.771 9.77936 80.1119 9.29403 80.5948 8.95312C81.0825 8.60748 81.6388 8.43466 82.2638 8.43466C82.4059 8.43466 82.5645 8.44176 82.7397 8.45597C82.9196 8.46544 83.0688 8.48201 83.1871 8.50568V10.8707C83.0782 10.8329 82.9054 10.7997 82.6687 10.7713C82.4367 10.7382 82.2118 10.7216 81.994 10.7216C81.5252 10.7216 81.1038 10.8234 80.7298 11.027C80.3604 11.2259 80.0692 11.5028 79.8562 11.858C79.6431 12.2131 79.5366 12.6226 79.5366 13.0866V19.5H76.9656ZM87.8391 19.7202C87.1478 19.7202 86.5252 19.5971 85.9712 19.3509C85.422 19.0999 84.9864 18.7306 84.6644 18.2429C84.3472 17.7552 84.1886 17.1539 84.1886 16.4389C84.1886 15.8234 84.3022 15.3144 84.5295 14.9119C84.7567 14.5095 85.0669 14.1875 85.4599 13.946C85.8529 13.7045 86.2956 13.5223 86.788 13.3991C87.2852 13.2713 87.7989 13.179 88.3292 13.1222C88.9684 13.0559 89.4869 12.9967 89.8846 12.9446C90.2823 12.8878 90.5711 12.8026 90.7511 12.6889C90.9357 12.5705 91.0281 12.3883 91.0281 12.142V12.0994C91.0281 11.5644 90.8694 11.1501 90.5522 10.8565C90.235 10.563 89.7781 10.4162 89.1815 10.4162C88.5517 10.4162 88.0522 10.5535 87.6829 10.8281C87.3183 11.1027 87.0721 11.4271 86.9442 11.8011L84.5437 11.4602C84.7331 10.7973 85.0456 10.2434 85.4812 9.7983C85.9168 9.34848 86.4495 9.01231 87.0792 8.78977C87.7089 8.5625 88.4049 8.44886 89.1673 8.44886C89.6928 8.44886 90.216 8.51042 90.7369 8.63352C91.2577 8.75663 91.7335 8.96023 92.1644 9.24432C92.5953 9.52367 92.9409 9.90483 93.2013 10.3878C93.4665 10.8707 93.5991 11.4744 93.5991 12.1989V19.5H91.1275V18.0014H91.0423C90.886 18.3045 90.6658 18.5885 90.3817 18.8537C90.1024 19.1141 89.7496 19.3248 89.3235 19.4858C88.9021 19.642 88.4073 19.7202 87.8391 19.7202ZM88.5067 17.831C89.0228 17.831 89.4703 17.7292 89.8491 17.5256C90.2279 17.3172 90.5191 17.0426 90.7227 16.7017C90.931 16.3608 91.0352 15.9891 91.0352 15.5866V14.3011C90.9547 14.3674 90.8174 14.429 90.6232 14.4858C90.4338 14.5426 90.2208 14.5923 89.984 14.6349C89.7473 14.6776 89.5129 14.7154 89.2809 14.7486C89.0489 14.7817 88.8477 14.8101 88.6772 14.8338C88.2937 14.8859 87.9504 14.9711 87.6474 15.0895C87.3443 15.2079 87.1052 15.3736 86.93 15.5866C86.7549 15.795 86.6673 16.0649 86.6673 16.3963C86.6673 16.8698 86.8401 17.2273 87.1857 17.4688C87.5314 17.7102 87.9717 17.831 88.5067 17.831ZM100.943 19.7131C99.8538 19.7131 98.9187 19.474 98.1374 18.9957C97.3609 18.5175 96.762 17.857 96.3406 17.0142C95.9239 16.1667 95.7156 15.1913 95.7156 14.0881C95.7156 12.9801 95.9286 12.0024 96.3548 11.1548C96.7809 10.3026 97.3822 9.63968 98.1587 9.16619C98.94 8.68797 99.8633 8.44886 100.929 8.44886C101.814 8.44886 102.598 8.61222 103.279 8.93892C103.966 9.26089 104.513 9.7178 104.92 10.3097C105.327 10.8968 105.559 11.5833 105.616 12.3693H103.159C103.059 11.8437 102.823 11.4058 102.449 11.0554C102.079 10.7003 101.584 10.5227 100.964 10.5227C100.439 10.5227 99.9769 10.6648 99.5792 10.9489C99.1815 11.2282 98.8713 11.6307 98.6488 12.1562C98.431 12.6818 98.3221 13.3116 98.3221 14.0455C98.3221 14.7888 98.431 15.428 98.6488 15.9631C98.8666 16.4934 99.172 16.9029 99.565 17.1918C99.9627 17.4759 100.429 17.6179 100.964 17.6179C101.343 17.6179 101.681 17.5469 101.98 17.4048C102.283 17.258 102.536 17.0473 102.74 16.7727C102.943 16.4981 103.083 16.1643 103.159 15.7713H105.616C105.555 16.5431 105.327 17.2273 104.934 17.8239C104.541 18.4157 104.006 18.8797 103.329 19.2159C102.652 19.5473 101.857 19.7131 100.943 19.7131ZM113.175 8.59091V10.5795H106.903V8.59091H113.175ZM108.452 5.97727H111.023V16.2188C111.023 16.5644 111.075 16.8295 111.179 17.0142C111.288 17.1941 111.43 17.3172 111.605 17.3835C111.78 17.4498 111.974 17.483 112.188 17.483C112.348 17.483 112.495 17.4711 112.628 17.4474C112.765 17.4238 112.869 17.4025 112.94 17.3835L113.374 19.3935C113.236 19.4408 113.04 19.4929 112.784 19.5497C112.533 19.6065 112.225 19.6397 111.861 19.6491C111.217 19.6681 110.637 19.571 110.121 19.358C109.605 19.1402 109.195 18.804 108.892 18.3494C108.594 17.8949 108.447 17.3267 108.452 16.6449V5.97727Z" fill="white"/>
</svg>
